<svg width="18" height="18" viewBox="0 0 18 18" fill="none" xmlns="http://www.w3.org/2000/svg">
<path d="M17.4853 16.0711L10.4142 9L17.4853 1.92893C17.6728 1.7414 17.7782 1.48704 17.7782 1.22183C17.7782 0.95661 17.6728 0.702256 17.4853 0.514719V0.514719C17.2977 0.327183 17.0434 0.221826 16.7782 0.221826C16.513 0.221826 16.2586 0.327183 16.0711 0.514719L9 7.58579L1.92893 0.514719C1.7414 0.327183 1.48704 0.221826 1.22183 0.221826C0.956609 0.221826 0.702255 0.327183 0.514719 0.514719V0.514719C0.327182 0.702256 0.221826 0.95661 0.221826 1.22183C0.221826 1.48704 0.327182 1.7414 0.514719 1.92893L7.58579 9L0.514719 16.0711C0.327182 16.2586 0.221825 16.513 0.221825 16.7782C0.221825 17.0434 0.327182 17.2977 0.514719 17.4853C0.702255 17.6728 0.956609 17.7782 1.22182 17.7782C1.48704 17.7782 1.7414 17.6728 1.92893 17.4853L9 10.4142L16.0711 17.4853C16.2586 17.6728 16.513 17.7782 16.7782 17.7782C17.0434 17.7782 17.2977 17.6728 17.4853 17.4853C17.6728 17.2977 17.7782 17.0434 17.7782 16.7782C17.7782 16.513 17.6728 16.2586 17.4853 16.0711Z" fill="white"/>
</svg>