<svg viewBox="0 0 24 24" xmlns="https://www.w3.org/2000/svg"><path fill-rule="evenodd" clip-rule="evenodd" d="M8.9 5.51c.27-.48.68-.9 1.17-1.16a3.71 3.71 0 0 1 4.47.55 3.7 3.7 0 0 1 .55 4.46c-.27.49-.68.9-1.17 1.16a3.7 3.7 0 0 1-4.46-.54A3.7 3.7 0 0 1 8.9 5.5zm3.1 7.37c.97 0 1.97-.24 2.91-.75a4.45 4.45 0 0 0 1.8-1.78c1.26-2.34.93-5-.84-6.76a5.63 5.63 0 0 0-6.78-.82A4.42 4.42 0 0 0 7.3 4.55a5.6 5.6 0 0 0 .86 6.75A5.4 5.4 0 0 0 12 12.88zm-8.1 6.26a4.94 4.94 0 0 1 4.88-3.8h6.44c1.22 0 2.38.41 3.29 1.17a4.65 4.65 0 0 1 1.59 2.63H3.9zm16.39-3.46a6.85 6.85 0 0 0-5.09-2.25H8.8c-1.94 0-3.8.82-5.09 2.25a6.66 6.66 0 0 0-1.66 5.26l.01.1h19.88l.01-.1a6.67 6.67 0 0 0-1.66-5.26z"/></svg>